<?xml version="1.0" encoding="UTF-8"?>
<svg xmlns="http://www.w3.org/2000/svg" width="459" height="612" viewBox="0 0 459 612">
  <rect width="459" height="612" fill="white"/>
  <path d="M 187,525 L 254,526 Z" fill="none" stroke="black" stroke-width="1"/>
  <path d="M 309,516 L 298,521 L 282,523 L 298,521 Z" fill="none" stroke="black" stroke-width="1"/>
  <path d="M 153,513 L 253,517 L 300,512 L 253,517 Z" fill="none" stroke="black" stroke-width="1"/>
  <path d="M 317,508 L 308,514 Z" fill="none" stroke="black" stroke-width="1"/>
  <path d="M 169,495 L 206,498 L 288,495 L 254,498 Z" fill="none" stroke="black" stroke-width="1"/>
  <path d="M 305,493 L 287,498 L 248,501 L 156,496 L 248,501 L 287,498 Z" fill="none" stroke="black" stroke-width="1"/>
  <path d="M 167,487 L 158,490 Z" fill="none" stroke="black" stroke-width="1"/>
  <path d="M 310,484 L 310,487 L 319,486 L 312,487 Z" fill="none" stroke="black" stroke-width="1"/>
  <path d="M 253,493 L 300,493 L 325,486 L 304,491 L 302,485 L 297,487 L 301,485 L 301,490 L 292,490 L 283,484 L 286,485 L 285,491 Z" fill="none" stroke="black" stroke-width="1"/>
  <path d="M 286,486 L 292,490 L 303,491 L 291,493 L 286,490 Z" fill="none" stroke="black" stroke-width="1"/>
  <path d="M 148,484 L 139,486 Z" fill="none" stroke="black" stroke-width="1"/>
  <path d="M 284,488 L 237,490 L 281,486 L 278,480 L 269,482 L 269,485 L 271,480 L 278,481 L 279,485 L 275,487 L 225,488 L 225,483 L 234,485 L 226,482 L 222,491 L 184,487 L 179,483 L 189,482 L 180,481 L 178,484 L 175,483 L 179,486 L 220,489 L 218,492 L 179,489 L 170,485 L 170,492 L 158,493 L 155,488 L 159,486 L 154,490 L 136,490 L 133,486 L 141,492 L 140,489 L 158,493 L 204,493 L 173,491 L 173,488 L 219,491 L 221,495 L 221,491 L 225,495 L 234,494 L 235,490 L 232,495 L 226,495 L 223,490 L 225,488 L 237,488 L 237,495 L 239,491 Z" fill="none" stroke="black" stroke-width="1"/>
  <path d="M 130,484 L 134,480 L 149,482 L 134,480 L 136,475 L 141,478 L 147,475 L 149,480 L 148,475 L 141,478 L 137,474 L 131,481 L 130,514 L 135,518 L 162,525 L 200,529 L 272,528 L 311,522 L 323,518 L 328,513 L 328,483 L 324,476 L 319,474 L 317,478 L 310,475 L 309,480 L 311,475 L 316,478 L 322,475 L 324,482 L 309,482 L 326,481 L 328,484 L 328,513 L 325,516 L 296,525 L 258,529 L 200,529 L 147,522 L 130,513 L 131,501 L 150,508 L 177,512 L 251,514 L 296,510 L 326,502 L 296,510 L 251,514 L 177,512 L 146,507 L 138,502 L 186,510 L 258,511 L 310,505 L 325,499 L 310,505 L 272,510 L 186,510 L 149,505 L 133,499 L 138,502 L 135,503 L 131,500 Z" fill="none" stroke="black" stroke-width="1"/>
  <path d="M 302,472 L 308,474 Z" fill="none" stroke="black" stroke-width="1"/>
  <path d="M 157,472 L 150,474 Z" fill="none" stroke="black" stroke-width="1"/>
  <path d="M 159,469 L 159,479 L 151,479 L 167,485 L 171,482 L 170,478 L 168,483 L 164,483 L 163,473 L 163,482 L 158,481 Z" fill="none" stroke="black" stroke-width="1"/>
  <path d="M 230,462 L 235,476 L 247,477 L 253,474 L 252,469 L 241,465 L 253,472 L 247,477 L 236,476 Z" fill="none" stroke="black" stroke-width="1"/>
  <path d="M 161,442 L 161,468 Z" fill="none" stroke="black" stroke-width="1"/>
  <path d="M 169,441 L 167,442 Z" fill="none" stroke="black" stroke-width="1"/>
  <path d="M 291,440 L 287,441 L 290,442 L 288,466 L 293,470 L 295,461 L 294,468 L 290,466 L 293,455 L 291,465 L 288,465 L 290,442 L 293,441 L 295,448 L 296,442 Z" fill="none" stroke="black" stroke-width="1"/>
  <path d="M 284,439 L 278,440 L 280,479 L 278,441 L 283,439 L 284,446 Z" fill="none" stroke="black" stroke-width="1"/>
  <path d="M 196,437 L 196,458 L 190,468 L 193,466 L 196,470 L 186,474 L 186,469 L 190,472 L 186,469 L 183,473 L 185,474 L 194,473 L 198,465 L 199,439 Z" fill="none" stroke="black" stroke-width="1"/>
  <path d="M 197,438 L 199,460 L 196,468 L 193,466 Z" fill="none" stroke="black" stroke-width="1"/>
  <path d="M 160,437 L 157,435 L 156,439 Z" fill="none" stroke="black" stroke-width="1"/>
  <path d="M 160,432 L 159,435 Z" fill="none" stroke="black" stroke-width="1"/>
  <path d="M 144,428 L 142,430 Z" fill="none" stroke="black" stroke-width="1"/>
  <path d="M 188,426 L 180,427 L 179,430 L 187,429 Z" fill="none" stroke="black" stroke-width="1"/>
  <path d="M 181,428 L 188,427 Z" fill="none" stroke="black" stroke-width="1"/>
  <path d="M 263,422 L 262,425 L 266,429 Z" fill="none" stroke="black" stroke-width="1"/>
  <path d="M 233,422 L 231,426 L 230,423 L 232,427 Z" fill="none" stroke="black" stroke-width="1"/>
  <path d="M 196,421 L 188,424 Z" fill="none" stroke="black" stroke-width="1"/>
  <path d="M 138,421 L 138,424 Z" fill="none" stroke="black" stroke-width="1"/>
  <path d="M 205,418 L 199,419 L 198,422 L 205,418 L 190,428 L 197,425 L 191,431 Z" fill="none" stroke="black" stroke-width="1"/>
  <path d="M 198,417 L 186,423 Z" fill="none" stroke="black" stroke-width="1"/>
  <path d="M 329,415 L 322,419 L 324,422 L 310,437 L 306,436 L 303,441 L 299,439 L 300,481 L 289,483 L 286,476 L 286,482 L 299,483 L 307,479 L 299,479 L 298,441 L 304,441 L 307,436 L 311,437 L 324,423 L 323,419 Z" fill="none" stroke="black" stroke-width="1"/>
  <path d="M 255,414 L 258,423 Z" fill="none" stroke="black" stroke-width="1"/>
  <path d="M 134,413 L 133,416 Z" fill="none" stroke="black" stroke-width="1"/>
  <path d="M 226,412 L 224,422 L 227,429 Z" fill="none" stroke="black" stroke-width="1"/>
  <path d="M 292,409 L 285,420 L 287,423 L 284,430 L 287,433 L 291,432 L 293,424 L 296,433 L 293,423 L 291,431 L 285,431 L 286,424 L 292,418 Z" fill="none" stroke="black" stroke-width="1"/>
  <path d="M 290,415 L 292,417 L 287,422 L 285,420 Z" fill="none" stroke="black" stroke-width="1"/>
  <path d="M 231,409 L 228,414 L 230,420 Z" fill="none" stroke="black" stroke-width="1"/>
  <path d="M 229,413 L 229,417 Z" fill="none" stroke="black" stroke-width="1"/>
  <path d="M 233,408 L 234,417 Z" fill="none" stroke="black" stroke-width="1"/>
  <path d="M 287,407 L 280,427 Z" fill="none" stroke="black" stroke-width="1"/>
  <path d="M 211,404 L 203,407 L 198,412 L 204,412 L 195,417 L 207,413 L 211,407 L 208,415 L 212,407 L 206,413 L 202,409 Z" fill="none" stroke="black" stroke-width="1"/>
  <path d="M 170,404 L 171,418 L 177,429 L 175,427 L 179,415 L 176,426 L 173,425 L 170,405 L 181,404 Z" fill="none" stroke="black" stroke-width="1"/>
  <path d="M 166,404 L 168,424 Z" fill="none" stroke="black" stroke-width="1"/>
  <path d="M 287,405 L 256,404 Z" fill="none" stroke="black" stroke-width="1"/>
  <path d="M 295,401 L 288,402 Z" fill="none" stroke="black" stroke-width="1"/>
  <path d="M 162,401 L 170,402 Z" fill="none" stroke="black" stroke-width="1"/>
  <path d="M 163,399 L 172,400 Z" fill="none" stroke="black" stroke-width="1"/>
  <path d="M 231,397 L 228,401 L 228,410 L 230,403 L 232,405 L 232,402 L 228,404 Z" fill="none" stroke="black" stroke-width="1"/>
  <path d="M 190,397 L 208,400 Z" fill="none" stroke="black" stroke-width="1"/>
  <path d="M 300,394 L 293,396 Z" fill="none" stroke="black" stroke-width="1"/>
  <path d="M 158,394 L 163,395 Z" fill="none" stroke="black" stroke-width="1"/>
  <path d="M 127,394 L 125,396 Z" fill="none" stroke="black" stroke-width="1"/>
  <path d="M 155,390 L 165,394 L 212,394 L 166,394 Z" fill="none" stroke="black" stroke-width="1"/>
  <path d="M 302,389 L 289,395 L 247,395 L 247,399 L 263,417 L 277,427 L 276,429 L 262,419 L 249,402 L 245,400 L 242,404 L 235,405 L 233,396 L 234,405 L 248,402 L 251,405 L 249,407 L 252,407 L 249,409 L 250,416 L 252,409 L 269,426 L 285,435 L 280,436 L 285,435 L 288,439 L 283,432 L 276,430 L 282,430 L 284,423 L 282,429 L 272,424 L 254,407 L 247,396 L 275,393 L 289,395 Z" fill="none" stroke="black" stroke-width="1"/>
  <path d="M 300,387 L 293,388 Z" fill="none" stroke="black" stroke-width="1"/>
  <path d="M 334,385 L 333,388 Z" fill="none" stroke="black" stroke-width="1"/>
  <path d="M 293,386 L 299,385 Z" fill="none" stroke="black" stroke-width="1"/>
  <path d="M 124,384 L 123,386 Z" fill="none" stroke="black" stroke-width="1"/>
  <path d="M 171,382 L 188,385 Z" fill="none" stroke="black" stroke-width="1"/>
  <path d="M 297,382 L 292,383 Z" fill="none" stroke="black" stroke-width="1"/>
  <path d="M 269,390 L 235,391 L 234,384 L 236,393 L 233,394 L 230,381 L 228,384 L 232,383 L 231,391 L 227,390 L 222,402 L 217,397 L 213,404 L 218,397 L 219,405 L 214,406 L 217,409 L 208,423 L 217,407 L 223,404 L 219,405 L 218,402 L 223,402 L 229,392 L 227,399 L 231,392 L 237,394 L 236,390 L 241,391 L 244,398 L 246,392 L 259,392 L 244,394 L 245,390 Z" fill="none" stroke="black" stroke-width="1"/>
  <path d="M 338,375 L 335,377 Z" fill="none" stroke="black" stroke-width="1"/>
  <path d="M 122,373 L 121,375 Z" fill="none" stroke="black" stroke-width="1"/>
  <path d="M 239,381 L 240,384 L 275,383 L 241,384 L 239,382 L 242,372 Z" fill="none" stroke="black" stroke-width="1"/>
  <path d="M 339,364 L 337,367 Z" fill="none" stroke="black" stroke-width="1"/>
  <path d="M 123,363 L 128,399 L 132,402 L 131,410 L 136,411 L 136,417 L 141,420 L 141,427 L 145,425 L 147,433 L 149,430 L 153,432 L 152,438 L 158,432 L 158,415 L 158,431 L 154,435 L 152,430 L 141,424 L 129,399 Z" fill="none" stroke="black" stroke-width="1"/>
  <path d="M 121,362 L 120,365 Z" fill="none" stroke="black" stroke-width="1"/>
  <path d="M 122,352 L 123,361 Z" fill="none" stroke="black" stroke-width="1"/>
  <path d="M 120,351 L 119,354 Z" fill="none" stroke="black" stroke-width="1"/>
  <path d="M 229,343 L 224,351 Z" fill="none" stroke="black" stroke-width="1"/>
  <path d="M 227,345 L 230,344 Z" fill="none" stroke="black" stroke-width="1"/>
  <path d="M 341,341 L 340,345 Z" fill="none" stroke="black" stroke-width="1"/>
  <path d="M 339,338 L 341,339 Z" fill="none" stroke="black" stroke-width="1"/>
  <path d="M 204,334 L 220,338 Z" fill="none" stroke="black" stroke-width="1"/>
  <path d="M 256,337 L 246,341 L 233,337 L 236,333 L 251,329 L 233,334 L 234,339 L 243,341 Z" fill="none" stroke="black" stroke-width="1"/>
  <path d="M 183,330 L 178,359 L 178,382 L 218,385 L 215,389 L 173,387 L 214,388 L 174,389 L 217,392 L 210,398 L 210,402 L 194,404 L 211,402 L 210,399 L 218,394 L 215,389 L 220,383 L 225,385 L 218,390 L 221,391 L 219,389 L 223,387 L 224,396 L 226,385 L 222,385 L 215,374 L 223,362 L 224,365 L 218,371 L 222,382 L 227,382 L 229,379 L 226,377 L 229,374 L 231,379 L 232,373 L 238,387 L 268,387 L 241,389 L 283,387 L 238,387 L 236,381 L 239,370 L 235,363 L 232,366 L 231,361 L 240,362 L 233,359 L 232,366 L 227,366 L 224,379 L 227,371 L 228,374 L 223,382 L 218,376 L 218,371 L 222,374 L 222,367 L 230,356 L 234,355 L 233,348 L 227,351 L 226,358 L 228,354 L 231,355 L 226,362 L 223,361 L 216,370 L 219,384 L 179,382 L 178,359 Z" fill="none" stroke="black" stroke-width="1"/>
  <path d="M 220,372 L 223,371 Z" fill="none" stroke="black" stroke-width="1"/>
  <path d="M 229,367 L 228,372 Z" fill="none" stroke="black" stroke-width="1"/>
  <path d="M 221,367 L 220,371 Z" fill="none" stroke="black" stroke-width="1"/>
  <path d="M 232,366 L 232,369 L 235,366 L 237,368 L 236,374 L 236,369 L 239,370 L 239,377 L 236,380 L 232,372 L 228,373 Z" fill="none" stroke="black" stroke-width="1"/>
  <path d="M 232,348 L 232,356 L 227,353 Z" fill="none" stroke="black" stroke-width="1"/>
  <path d="M 206,328 L 225,335 L 220,340 L 221,344 L 228,341 L 222,344 L 220,341 L 225,337 L 225,333 Z" fill="none" stroke="black" stroke-width="1"/>
  <path d="M 166,320 L 167,381 L 162,381 L 164,377 L 161,381 L 164,383 L 167,382 Z" fill="none" stroke="black" stroke-width="1"/>
  <path d="M 300,317 L 295,327 Z" fill="none" stroke="black" stroke-width="1"/>
  <path d="M 152,315 L 163,322 L 164,330 L 163,321 Z" fill="none" stroke="black" stroke-width="1"/>
  <path d="M 337,313 L 309,319 L 301,324 L 300,381 L 307,390 L 299,399 L 299,434 L 294,437 L 288,435 L 293,437 L 290,438 L 296,439 L 295,436 L 298,437 L 312,428 L 328,401 L 333,404 L 326,411 L 329,413 L 328,410 L 332,407 L 331,401 L 335,398 L 334,391 L 338,387 L 337,380 L 342,365 L 340,359 L 343,355 L 340,359 L 342,365 L 337,371 L 340,376 L 334,391 L 335,397 L 329,402 L 327,400 L 329,394 L 330,398 L 333,396 L 329,394 L 335,371 L 335,352 L 339,349 L 336,344 Z" fill="none" stroke="black" stroke-width="1"/>
  <path d="M 336,313 L 338,334 L 333,381 L 320,417 L 311,428 L 300,435 L 300,400 L 307,390 L 300,380 L 300,327 L 310,319 Z" fill="none" stroke="black" stroke-width="1"/>
  <path d="M 131,313 L 140,313 L 144,316 L 140,313 Z" fill="none" stroke="black" stroke-width="1"/>
  <path d="M 121,313 L 122,332 L 119,337 L 121,339 L 117,342 L 122,340 L 122,350 L 122,313 L 139,319 L 148,319 L 158,326 L 159,378 L 152,387 L 152,393 L 159,401 L 163,440 L 167,440 L 163,439 L 163,435 L 170,437 L 172,433 L 187,433 L 177,440 L 175,439 L 178,437 L 172,439 L 176,440 L 174,454 L 177,471 L 174,442 L 189,432 L 181,435 L 180,432 L 172,431 L 170,424 L 171,431 L 180,433 L 167,433 L 169,437 L 163,434 L 159,399 L 152,392 L 159,378 L 158,325 L 149,319 L 139,319 Z" fill="none" stroke="black" stroke-width="1"/>
  <path d="M 239,308 L 237,328 L 247,325 L 236,327 Z" fill="none" stroke="black" stroke-width="1"/>
  <path d="M 117,299 L 119,310 L 122,307 L 126,308 L 120,303 L 120,310 Z" fill="none" stroke="black" stroke-width="1"/>
  <path d="M 286,298 L 274,322 L 258,332 L 274,322 L 281,349 L 274,322 Z" fill="none" stroke="black" stroke-width="1"/>
  <path d="M 172,297 L 178,314 L 184,320 L 178,313 Z" fill="none" stroke="black" stroke-width="1"/>
  <path d="M 186,290 L 194,309 L 210,322 L 222,326 L 219,328 L 205,322 L 219,328 L 222,326 L 224,331 L 219,307 L 222,324 L 209,321 L 193,307 Z" fill="none" stroke="black" stroke-width="1"/>
  <path d="M 100,276 L 106,277 L 106,281 L 100,283 L 106,282 L 106,276 Z" fill="none" stroke="black" stroke-width="1"/>
  <path d="M 352,275 L 352,282 L 358,283 L 359,277 Z" fill="none" stroke="black" stroke-width="1"/>
  <path d="M 352,277 L 357,276 L 359,282 L 354,283 Z" fill="none" stroke="black" stroke-width="1"/>
  <path d="M 108,274 L 110,276 Z" fill="none" stroke="black" stroke-width="1"/>
  <path d="M 349,271 L 348,281 Z" fill="none" stroke="black" stroke-width="1"/>
  <path d="M 289,268 L 290,305 Z" fill="none" stroke="black" stroke-width="1"/>
  <path d="M 223,268 L 217,280 L 223,289 L 232,289 L 224,289 L 219,280 L 223,274 L 232,272 L 238,280 L 242,280 L 243,277 L 236,268 Z" fill="none" stroke="black" stroke-width="1"/>
  <path d="M 217,279 L 224,268 L 237,269 L 243,278 L 239,280 L 234,273 L 225,272 L 219,280 Z" fill="none" stroke="black" stroke-width="1"/>
  <path d="M 345,264 L 346,301 L 345,267 L 348,267 Z" fill="none" stroke="black" stroke-width="1"/>
  <path d="M 342,264 L 343,287 Z" fill="none" stroke="black" stroke-width="1"/>
  <path d="M 116,264 L 115,302 Z" fill="none" stroke="black" stroke-width="1"/>
  <path d="M 113,264 L 110,265 L 113,267 L 113,279 L 108,279 L 112,282 L 112,301 Z" fill="none" stroke="black" stroke-width="1"/>
  <path d="M 141,262 L 122,264 L 118,277 L 122,265 Z" fill="none" stroke="black" stroke-width="1"/>
  <path d="M 208,274 L 219,261 L 235,259 L 248,269 L 251,278 L 247,267 L 235,259 L 218,261 Z" fill="none" stroke="black" stroke-width="1"/>
  <path d="M 162,258 L 164,268 Z" fill="none" stroke="black" stroke-width="1"/>
  <path d="M 314,257 L 313,317 L 315,308 L 336,311 L 340,305 L 340,298 L 340,305 L 335,304 L 339,306 L 338,310 L 315,308 Z" fill="none" stroke="black" stroke-width="1"/>
  <path d="M 225,256 L 237,257 L 249,266 L 254,278 L 253,286 L 251,268 L 245,261 L 233,256 L 221,257 L 212,262 L 206,272 L 205,282 L 210,295 L 220,302 L 227,332 L 230,332 L 227,337 L 233,344 L 243,345 L 238,342 L 233,344 L 229,335 L 238,304 L 223,304 L 216,300 L 205,282 L 205,275 L 211,264 Z" fill="none" stroke="black" stroke-width="1"/>
  <path d="M 228,338 L 229,335 L 231,337 Z" fill="none" stroke="black" stroke-width="1"/>
  <path d="M 221,303 L 238,304 L 230,331 L 225,324 Z" fill="none" stroke="black" stroke-width="1"/>
  <path d="M 227,316 L 229,325 L 231,321 L 228,324 Z" fill="none" stroke="black" stroke-width="1"/>
  <path d="M 162,256 L 150,260 L 150,271 L 151,261 Z" fill="none" stroke="black" stroke-width="1"/>
  <path d="M 318,254 L 337,259 L 337,281 L 339,267 L 336,257 Z" fill="none" stroke="black" stroke-width="1"/>
  <path d="M 282,251 L 286,266 L 288,261 L 285,263 Z" fill="none" stroke="black" stroke-width="1"/>
  <path d="M 315,250 L 316,256 Z" fill="none" stroke="black" stroke-width="1"/>
  <path d="M 142,250 L 121,259 L 139,253 L 144,258 L 144,305 L 141,309 L 139,307 L 144,309 L 144,314 Z" fill="none" stroke="black" stroke-width="1"/>
  <path d="M 300,247 L 308,252 L 307,249 L 304,251 Z" fill="none" stroke="black" stroke-width="1"/>
  <path d="M 158,245 L 154,251 L 150,250 L 155,251 Z" fill="none" stroke="black" stroke-width="1"/>
  <path d="M 297,244 L 291,267 Z" fill="none" stroke="black" stroke-width="1"/>
  <path d="M 267,243 L 278,259 L 283,283 L 277,305 L 273,298 L 259,316 L 273,300 L 276,301 L 267,315 L 275,305 L 275,309 L 261,324 L 276,308 L 283,283 L 279,261 Z" fill="none" stroke="black" stroke-width="1"/>
  <path d="M 161,243 L 161,250 L 170,269 L 170,297 L 170,269 L 161,250 Z" fill="none" stroke="black" stroke-width="1"/>
  <path d="M 184,275 L 191,258 L 203,245 L 217,238 L 234,237 L 253,245 L 264,256 L 272,280 L 264,255 L 254,245 L 234,237 L 217,238 L 202,245 L 191,257 Z" fill="none" stroke="black" stroke-width="1"/>
  <path d="M 259,234 L 272,245 L 281,259 L 285,272 L 285,290 L 274,315 L 252,332 L 261,328 L 274,316 L 285,290 L 285,272 L 279,254 L 272,244 Z" fill="none" stroke="black" stroke-width="1"/>
  <path d="M 187,260 L 190,254 L 209,238 L 235,234 L 254,241 L 265,251 L 271,263 L 268,252 L 276,264 L 271,255 L 255,241 L 235,234 L 218,235 L 203,241 Z" fill="none" stroke="black" stroke-width="1"/>
  <path d="M 201,233 L 183,248 L 173,272 L 173,290 L 185,317 L 197,328 L 209,333 L 199,329 L 185,316 L 173,290 L 176,262 L 183,249 L 192,242 L 177,267 L 176,291 L 182,308 L 199,326 L 182,307 L 183,305 L 191,315 L 183,304 L 185,299 L 191,310 L 201,318 L 188,305 L 185,295 L 182,306 L 178,299 L 176,272 L 180,259 L 192,243 L 192,239 Z" fill="none" stroke="black" stroke-width="1"/>
  <path d="M 203,235 L 225,227 L 243,229 L 255,235 L 251,230 L 250,232 L 232,227 L 215,229 Z" fill="none" stroke="black" stroke-width="1"/>
  <path d="M 270,239 L 254,228 L 233,223 L 210,226 L 193,235 L 192,232 L 207,224 L 236,217 L 207,224 L 190,233 L 186,230 L 185,223 L 186,231 L 193,235 L 183,243 L 182,225 L 182,243 L 207,227 L 226,223 L 251,227 Z" fill="none" stroke="black" stroke-width="1"/>
  <path d="M 151,192 L 156,193 Z" fill="none" stroke="black" stroke-width="1"/>
  <path d="M 294,191 L 296,196 L 297,191 Z" fill="none" stroke="black" stroke-width="1"/>
  <path d="M 162,191 L 163,195 Z" fill="none" stroke="black" stroke-width="1"/>
  <path d="M 145,191 L 138,192 Z" fill="none" stroke="black" stroke-width="1"/>
  <path d="M 313,190 L 320,192 Z" fill="none" stroke="black" stroke-width="1"/>
  <path d="M 310,183 L 309,192 L 312,196 L 321,196 L 324,192 L 323,186 L 312,186 L 324,188 L 317,197 L 309,191 Z" fill="none" stroke="black" stroke-width="1"/>
  <path d="M 148,183 L 149,191 L 145,196 L 138,196 L 134,188 L 146,186 L 135,186 L 134,192 L 137,196 L 146,196 L 149,192 Z" fill="none" stroke="black" stroke-width="1"/>
  <path d="M 233,184 L 234,186 L 237,182 L 247,182 Z" fill="none" stroke="black" stroke-width="1"/>
  <path d="M 303,180 L 303,185 L 299,189 L 300,240 L 311,247 L 311,316 L 312,246 L 336,252 L 340,261 L 347,261 L 352,273 L 359,273 L 362,278 L 361,290 L 351,293 L 350,302 L 343,306 L 343,344 L 339,356 L 338,354 L 343,352 L 343,307 L 350,303 L 352,293 L 361,291 L 362,278 L 361,274 L 352,272 L 349,262 L 340,260 L 337,252 L 317,246 L 311,247 L 300,239 L 300,188 L 307,185 L 303,183 L 304,180 L 323,182 Z" fill="none" stroke="black" stroke-width="1"/>
  <path d="M 143,180 L 133,183 L 154,180 L 155,183 L 151,186 L 155,187 L 151,188 L 158,188 L 158,239 L 147,247 L 141,246 L 121,252 L 117,261 L 108,263 L 105,273 L 97,274 L 96,282 L 98,292 L 106,293 L 109,304 L 115,307 L 117,365 L 126,407 L 140,432 L 158,444 L 158,467 L 158,443 L 140,431 L 128,411 L 130,403 L 126,406 L 118,374 L 114,332 L 115,306 L 109,303 L 107,293 L 97,290 L 96,282 L 97,275 L 106,273 L 108,264 L 118,261 L 122,252 L 146,246 L 148,317 L 147,247 L 158,240 L 158,187 L 161,184 L 169,184 L 171,186 L 168,189 L 161,188 L 168,190 L 177,185 L 180,196 L 178,189 L 183,195 L 190,185 L 183,193 L 178,185 L 171,186 L 168,181 L 158,181 L 169,183 L 157,187 L 155,180 Z" fill="none" stroke="black" stroke-width="1"/>
  <path d="M 234,178 L 224,178 L 223,184 L 191,183 L 220,182 L 227,191 L 232,191 L 225,187 L 232,186 L 223,184 L 232,182 Z" fill="none" stroke="black" stroke-width="1"/>
  <path d="M 224,179 L 234,180 L 226,182 Z" fill="none" stroke="black" stroke-width="1"/>
  <path d="M 301,176 L 317,176 Z" fill="none" stroke="black" stroke-width="1"/>
  <path d="M 240,176 L 287,178 L 240,176 L 238,179 L 290,181 L 287,186 L 277,183 L 276,192 L 273,192 L 269,185 L 271,191 L 276,193 L 279,183 L 290,189 L 288,242 L 290,190 L 297,188 L 291,189 L 287,186 L 298,186 L 289,183 L 300,181 L 239,179 Z" fill="none" stroke="black" stroke-width="1"/>
  <path d="M 220,177 L 185,177 L 218,176 L 219,179 L 170,180 Z" fill="none" stroke="black" stroke-width="1"/>
  <path d="M 322,172 L 325,173 Z" fill="none" stroke="black" stroke-width="1"/>
  <path d="M 140,171 L 133,173 Z" fill="none" stroke="black" stroke-width="1"/>
  <path d="M 266,165 L 188,165 L 167,167 L 160,174 L 155,168 L 158,175 L 145,177 L 161,173 L 236,176 L 256,174 L 166,174 L 164,172 L 167,167 L 212,164 Z" fill="none" stroke="black" stroke-width="1"/>
  <path d="M 130,160 L 132,187 L 130,176 L 135,169 L 164,164 L 219,161 L 269,162 L 316,167 L 327,172 L 326,187 L 328,184 L 327,157 L 323,151 L 303,148 L 299,140 L 296,109 L 287,87 L 273,71 L 257,60 L 250,45 L 240,41 L 235,33 L 221,34 L 217,42 L 208,45 L 201,60 L 180,76 L 165,99 L 155,148 L 136,151 Z" fill="none" stroke="black" stroke-width="1"/>
  <path d="M 131,170 L 133,167 L 154,161 L 217,158 L 298,161 L 328,169 L 326,171 L 316,167 L 284,163 L 219,161 L 164,164 Z" fill="none" stroke="black" stroke-width="1"/>
  <path d="M 130,160 L 136,151 L 155,149 L 164,102 L 180,77 L 201,61 L 209,45 L 219,40 L 223,43 L 223,37 L 221,42 L 219,40 L 223,33 L 235,33 L 239,37 L 236,42 L 235,36 L 235,42 L 239,40 L 248,44 L 257,61 L 272,71 L 285,85 L 296,109 L 299,140 L 303,149 L 322,151 L 327,158 L 328,167 L 286,160 L 217,158 L 154,161 L 132,168 Z" fill="none" stroke="black" stroke-width="1"/>
  <path d="M 306,159 L 311,155 L 315,159 L 312,161 L 315,161 L 311,155 Z" fill="none" stroke="black" stroke-width="1"/>
  <path d="M 318,154 L 321,155 Z" fill="none" stroke="black" stroke-width="1"/>
  <path d="M 159,158 L 166,158 L 167,152 L 188,149 L 287,151 L 188,149 L 166,152 L 164,157 Z" fill="none" stroke="black" stroke-width="1"/>
  <path d="M 300,147 L 298,144 L 291,145 Z" fill="none" stroke="black" stroke-width="1"/>
  <path d="M 301,149 L 290,148 L 284,138 L 286,145 L 289,145 L 288,148 L 239,146 Z" fill="none" stroke="black" stroke-width="1"/>
  <path d="M 198,137 L 187,141 L 196,138 L 191,145 L 180,141 L 185,145 L 191,145 Z" fill="none" stroke="black" stroke-width="1"/>
  <path d="M 285,136 L 290,143 L 297,142 L 292,142 Z" fill="none" stroke="black" stroke-width="1"/>
  <path d="M 190,132 L 191,136 L 187,139 L 191,137 Z" fill="none" stroke="black" stroke-width="1"/>
  <path d="M 157,149 L 237,145 L 238,141 L 224,141 L 218,146 L 173,148 L 172,144 L 170,148 L 170,144 L 162,141 L 167,108 L 162,141 L 169,145 L 158,147 L 169,148 Z" fill="none" stroke="black" stroke-width="1"/>
  <path d="M 238,142 L 236,145 L 220,144 L 232,143 L 235,139 Z" fill="none" stroke="black" stroke-width="1"/>
  <path d="M 212,85 L 207,85 L 202,94 L 200,116 L 202,94 L 207,86 L 211,85 L 212,97 Z" fill="none" stroke="black" stroke-width="1"/>
  <path d="M 200,72 L 192,80 L 183,106 L 190,84 Z" fill="none" stroke="black" stroke-width="1"/>
  <path d="M 198,72 L 190,78 L 178,101 L 174,116 L 176,146 L 174,116 L 178,101 L 190,79 Z" fill="none" stroke="black" stroke-width="1"/>
  <path d="M 249,58 L 254,59 Z" fill="none" stroke="black" stroke-width="1"/>
  <path d="M 212,54 L 246,54 L 213,54 L 213,51 L 223,49 L 248,51 L 223,49 L 212,51 Z" fill="none" stroke="black" stroke-width="1"/>
  <path d="M 212,46 L 247,48 Z" fill="none" stroke="black" stroke-width="1"/>
</svg>